<svg width="1017" height="707" viewBox="0 0 1017 707" fill="none" xmlns="http://www.w3.org/2000/svg">
<path d="M590.71 12C340.99 50.296 555.982 254.631 479.564 340.2C372.175 460.448 203.707 349.152 221.23 532.583C233.556 661.6 1.68198 553.6 50.8566 707H639.418C714.998 624.157 511.551 592.628 582.769 504.209C675.607 388.942 897.42 516.069 841.685 311.734C794.421 138.453 981.416 251.856 1017 145.004V12H590.71Z" fill="#BEBDE8"/>
<path d="M558.918 0C304.048 37.8001 523.474 239.489 445.48 323.95C335.876 442.641 163.934 332.786 181.819 513.842C194.399 641.188 -42.2574 534.586 7.93131 686H608.631C685.77 604.23 478.127 573.109 550.813 485.835C645.567 372.061 871.954 497.542 815.07 295.853C766.83 124.816 957.682 236.749 994 131.281V0H558.918Z" fill="#8987D1"/>
<circle cx="392.6" cy="329.965" r="57.0355" fill="#BBD1F2"/>
<circle cx="387.036" cy="329.036" r="57.0355" fill="#FDFEFF"/>
<path d="M413.572 349H360.71C358.661 349 357 350.661 357 352.71V356.419C357 358.468 358.661 360.129 360.71 360.129H413.572C415.621 360.129 417.281 358.468 417.281 356.419V352.71C417.281 350.661 415.621 349 413.572 349Z" fill="#DCEAFF"/>
<path d="M370.448 356.883C371.728 356.883 372.766 355.845 372.766 354.564C372.766 353.284 371.728 352.246 370.448 352.246C369.167 352.246 368.129 353.284 368.129 354.564C368.129 355.845 369.167 356.883 370.448 356.883Z" fill="#0D4C92"/>
<path d="M378.794 356.883C380.075 356.883 381.113 355.845 381.113 354.564C381.113 353.284 380.075 352.246 378.794 352.246C377.514 352.246 376.476 353.284 376.476 354.564C376.476 355.845 377.514 356.883 378.794 356.883Z" fill="#0D4C92"/>
<path d="M387.141 356.883C388.421 356.883 389.459 355.845 389.459 354.564C389.459 353.284 388.421 352.246 387.141 352.246C385.86 352.246 384.822 353.284 384.822 354.564C384.822 355.845 385.86 356.883 387.141 356.883Z" fill="#B0C3ED"/>
<path d="M395.487 356.883C396.768 356.883 397.806 355.845 397.806 354.564C397.806 353.284 396.768 352.246 395.487 352.246C394.207 352.246 393.169 353.284 393.169 354.564C393.169 355.845 394.207 356.883 395.487 356.883Z" fill="#0D4C92"/>
<path d="M403.834 356.883C405.115 356.883 406.153 355.845 406.153 354.564C406.153 353.284 405.115 352.246 403.834 352.246C402.554 352.246 401.516 353.284 401.516 354.564C401.516 355.845 402.554 356.883 403.834 356.883Z" fill="#B0C3ED"/>
<path d="M379 317.134V328.768C379 330.064 394.819 330.064 394.819 328.768V317.134H379V317.134ZM387.71 323.313V326.612C387.71 327.052 387.352 327.416 386.912 327.416C386.473 327.416 386.108 327.052 386.108 326.612V323.306C385.431 323.001 384.955 322.315 384.955 321.527C384.955 320.447 385.832 319.577 386.912 319.577C387.992 319.577 388.863 320.447 388.863 321.527C388.863 322.325 388.394 323.009 387.71 323.313Z" fill="#0D4C92"/>
<path d="M393.434 316.307H391.833V315.524C391.833 312.809 389.623 310.602 386.91 310.602C384.198 310.602 381.988 312.811 381.988 315.524V316.307H380.386V315.524C380.386 311.926 383.313 309 386.91 309C390.508 309 393.434 311.926 393.434 315.524V316.307Z" fill="#0D4C92"/>
<path d="M415.078 334.043H359.613C359.491 334.043 359.392 334.159 359.392 334.303V341.406C359.392 341.55 359.491 341.666 359.613 341.666H415.078C415.2 341.666 415.299 341.55 415.299 341.406V334.303C415.299 334.159 415.2 334.043 415.078 334.043Z" fill="#DCEAFF"/>
<path d="M417.629 339.507H355.371C355.166 339.507 355 339.703 355 339.944V342.368C355 342.61 355.166 342.805 355.371 342.805H417.629C417.834 342.805 418 342.61 418 342.368V339.944C418 339.703 417.834 339.507 417.629 339.507Z" fill="#0D4C92"/>
<path d="M413.675 304.962H360.71C359.914 304.962 359.706 303.668 360.446 303.325L386.928 291.059C387.098 290.98 387.287 290.98 387.456 291.059L413.939 303.325C414.68 303.668 414.471 304.962 413.674 304.962H413.675Z" fill="#DCEAFF"/>
<path d="M363.598 306.776H362.462V331.36H363.598V306.776Z" fill="#0D4C92"/>
<path d="M365.301 306.776H364.166V331.36H365.301V306.776Z" fill="#0D4C92"/>
<path d="M367.005 306.776H365.869V331.36H367.005V306.776Z" fill="#0D4C92"/>
<path d="M368.254 305.44H361.212V305.799L362.234 306.375H367.232L368.254 305.799V305.44Z" fill="#B0C3ED"/>
<path d="M368.311 333.497H361.27V332.202L362.292 331.627H367.289L368.311 332.202V333.497Z" fill="#DCEAFF"/>
<path d="M372.57 306.776H371.434V331.36H372.57V306.776Z" fill="#0D4C92"/>
<path d="M374.273 306.776H373.137V331.36H374.273V306.776Z" fill="#0D4C92"/>
<path d="M375.977 306.776H374.841V331.36H375.977V306.776Z" fill="#0D4C92"/>
<path d="M377.226 305.44H370.185V305.799L371.207 306.375H376.204L377.226 305.799V305.44Z" fill="#B0C3ED"/>
<path d="M377.283 333.497H370.241V332.202L371.263 331.627H376.261L377.283 332.202V333.497Z" fill="#DCEAFF"/>
<path d="M399.487 306.776H398.351V331.36H399.487V306.776Z" fill="#0D4C92"/>
<path d="M401.191 306.776H400.055V331.36H401.191V306.776Z" fill="#0D4C92"/>
<path d="M402.895 306.776H401.759V331.36H402.895V306.776Z" fill="#0D4C92"/>
<path d="M404.144 305.44H397.102V305.799L398.124 306.375H403.121L404.144 305.799V305.44Z" fill="#B0C3ED"/>
<path d="M404.2 333.497H397.159V332.202L398.181 331.627H403.178L404.2 332.202V333.497Z" fill="#DCEAFF"/>
<path d="M408.459 306.776H407.323V331.36H408.459V306.776Z" fill="#0D4C92"/>
<path d="M410.163 306.776H409.027V331.36H410.163V306.776Z" fill="#0D4C92"/>
<path d="M411.867 306.776H410.731V331.36H411.867V306.776Z" fill="#0D4C92"/>
<path d="M413.116 305.44H406.074V305.799L407.096 306.375H412.094L413.116 305.799V305.44Z" fill="#B0C3ED"/>
<path d="M413.173 333.497H406.131V332.202L407.153 331.627H412.15L413.173 332.202V333.497Z" fill="#DCEAFF"/>
<path d="M415.188 334.05H359.554C359.464 334.05 359.392 334.135 359.392 334.24V335.294C359.392 335.399 359.464 335.484 359.554 335.484H415.188C415.277 335.484 415.349 335.399 415.349 335.294V334.24C415.349 334.135 415.277 334.05 415.188 334.05Z" fill="#B0C3ED"/>
<circle cx="811.349" cy="412.349" r="54.3489" fill="#BBD1F2"/>
<circle cx="805.349" cy="414.349" r="54.3489" fill="#FDFEFF"/>
<path d="M817.845 432.323H781.683C781.078 432.323 780.587 432.814 780.587 433.419V435.611C780.587 436.216 781.078 436.706 781.683 436.706H817.845C818.45 436.706 818.94 436.216 818.94 435.611V433.419C818.94 432.814 818.45 432.323 817.845 432.323Z" fill="#BBD1F2"/>
<path d="M803.599 439.994H781.683C781.078 439.994 780.587 440.485 780.587 441.09V443.282C780.587 443.887 781.078 444.377 781.683 444.377H803.599C804.204 444.377 804.695 443.887 804.695 443.282V441.09C804.695 440.485 804.204 439.994 803.599 439.994Z" fill="#BBD1F2"/>
<path d="M814.557 447.665H781.683C781.078 447.665 780.587 448.155 780.587 448.76V450.952C780.587 451.557 781.078 452.048 781.683 452.048H814.557C815.162 452.048 815.653 451.557 815.653 450.952V448.76C815.653 448.155 815.162 447.665 814.557 447.665Z" fill="#BBD1F2"/>
<g clip-path="url(#clip0_290_4692)">
<path d="M823.302 434.005L825.143 435.731L828.825 432.279" stroke="#0D4C92" stroke-width="1.36977" stroke-linecap="round" stroke-linejoin="round"/>
</g>
<g clip-path="url(#clip1_290_4692)">
<path d="M823.302 441.676L825.143 443.402L828.825 439.95" stroke="#0D4C92" stroke-width="1.36977" stroke-linecap="round" stroke-linejoin="round"/>
</g>
<g clip-path="url(#clip2_290_4692)">
<path d="M823.302 449.347L825.143 451.073L828.825 447.621" stroke="#0D4C92" stroke-width="1.36977" stroke-linecap="round" stroke-linejoin="round"/>
</g>
<rect x="778.395" y="374.246" width="53.0233" height="53.0233" rx="8.83722" fill="#F5F9FF"/>
<mask id="mask0_290_4692" style="mask-type:alpha" maskUnits="userSpaceOnUse" x="778" y="374" width="54" height="54">
<rect x="778.395" y="374.245" width="53.0233" height="53.0233" rx="8.83722" fill="#F5F9FF"/>
</mask>
<g mask="url(#mask0_290_4692)">
<path d="M803.581 374.245H831.418V427.268H803.581C803.581 427.268 801.814 422.408 800.93 418.431C800.046 414.454 799.604 406.526 799.604 401.641C799.605 395.454 800.046 389.268 800.93 383.966C801.814 378.664 803.581 374.245 803.581 374.245Z" fill="#DCEAFF"/>
</g>
<path d="M796.069 399.524V412.273C796.069 413.692 813.402 413.692 813.402 412.273V399.524H796.069Z" fill="#0D4C92"/>
<path d="M811.884 398.905H810.129V394.651C810.129 391.676 807.708 389.257 804.735 389.257C801.763 389.257 799.342 391.678 799.342 394.651V395.508H797.586V394.651C797.586 390.709 800.793 387.502 804.735 387.502C808.678 387.502 811.884 390.709 811.884 394.651V398.905Z" fill="#0D4C92"/>
<path d="M803.118 410.336C802.938 410.336 802.756 410.264 802.626 410.122L799.769 407.062C799.515 406.788 799.529 406.36 799.801 406.108C800.073 405.852 800.499 405.868 800.753 406.14L803.154 408.713L809.871 402.564C810.147 402.314 810.572 402.332 810.824 402.606C811.076 402.88 811.056 403.307 810.782 403.559L803.574 410.158C803.444 410.276 803.282 410.334 803.118 410.334V410.336Z" fill="#F5F9FF"/>
<path d="M792.628 422.85H788.446C785.34 422.85 782.814 420.185 782.814 416.91V412.34H784.374V416.91C784.374 419.277 786.2 421.205 788.446 421.205H792.628V422.85Z" fill="#0D4C92"/>
<path d="M821.368 422.85H817.283V421.205H821.368C823.613 421.205 825.44 419.279 825.44 416.91V412.183H827V416.91C827 420.186 824.473 422.85 821.368 422.85V422.85Z" fill="#0D4C92"/>
<path d="M827 388.697H825.44V384.604C825.44 382.237 823.614 380.309 821.368 380.309H817.432V378.664H821.368C824.474 378.664 827 381.329 827 384.604V388.697V388.697Z" fill="#0D4C92"/>
<path d="M784.374 389.489H782.814V384.604C782.814 381.328 785.341 378.664 788.446 378.664H792.476V380.309H788.446C786.201 380.309 784.374 382.235 784.374 384.604V389.489V389.489Z" fill="#0D4C92"/>
<circle cx="596.44" cy="135.44" r="55.4402" fill="#BBD1F2"/>
<circle cx="594.243" cy="132.023" r="54.9771" fill="#FDFEFF"/>
<rect x="564.952" y="91.5952" width="58.4212" height="80.6213" rx="4.6737" fill="#DCEAFF"/>
<rect x="569.625" y="96.2686" width="49.0738" height="71.2739" rx="4.6737" fill="#F5F9FF"/>
<path d="M589.87 120.921H597.624C603.765 120.921 608.746 125.903 608.746 132.044V140.612H578.747V132.044C578.747 125.903 583.729 120.921 589.87 120.921Z" fill="#0D4C92"/>
<path d="M602.85 106.007C604.589 110.887 602.043 116.26 597.164 118.007C592.284 119.746 586.911 117.2 585.164 112.32C583.417 107.441 585.971 102.06 590.85 100.321C595.73 98.5819 601.103 101.128 602.85 106.007Z" fill="#0D4C92"/>
<path d="M612.857 144.174H574.299C573.654 144.174 573.131 144.697 573.131 145.342V147.679C573.131 148.324 573.654 148.848 574.299 148.848H612.857C613.502 148.848 614.025 148.324 614.025 147.679V145.342C614.025 144.697 613.502 144.174 612.857 144.174Z" fill="#BBD1F2"/>
<path d="M597.668 152.353H574.299C573.654 152.353 573.131 152.876 573.131 153.521V155.858C573.131 156.504 573.654 157.027 574.299 157.027H597.668C598.313 157.027 598.836 156.504 598.836 155.858V153.521C598.836 152.876 598.313 152.353 597.668 152.353Z" fill="#BBD1F2"/>
<path d="M609.352 160.532H574.299C573.654 160.532 573.131 161.055 573.131 161.7V164.037C573.131 164.682 573.654 165.205 574.299 165.205H609.352C609.997 165.205 610.52 164.682 610.52 164.037V161.7C610.52 161.055 609.997 160.532 609.352 160.532Z" fill="#BBD1F2"/>
<circle cx="622" cy="184" r="4" fill="#F5F5F5"/>
<circle cx="387" cy="390" r="4" fill="#F5F5F5"/>
<circle cx="448" cy="330" r="4" fill="#F5F5F5"/>
<path d="M540.54 122.341C541.005 122.043 541.141 121.425 540.843 120.96L535.988 113.381C535.69 112.916 535.072 112.781 534.607 113.079C534.142 113.376 534.006 113.995 534.304 114.46L538.619 121.196L531.883 125.512C531.418 125.809 531.282 126.428 531.58 126.893C531.878 127.358 532.497 127.494 532.962 127.196L540.54 122.341ZM546.501 264.499L547.495 264.398L546.501 264.499ZM459.501 162.499L458.525 162.281L458.511 162.341L458.505 162.402L459.501 162.499ZM449.333 330.486C477.464 335.258 503.358 332.525 521.574 321.672C539.875 310.768 550.281 291.751 547.495 264.398L545.506 264.6C548.219 291.249 538.125 309.482 520.551 319.953C502.892 330.475 477.536 333.242 449.667 328.514L449.333 330.486ZM547.495 264.398C546.112 250.816 539.448 241.432 530.417 234.064C521.435 226.735 510.041 221.35 499.182 215.786C488.259 210.189 477.862 204.404 470.548 196.257C463.285 188.167 459.023 177.697 460.496 162.596L458.505 162.402C456.979 178.051 461.416 189.078 469.06 197.593C476.652 206.05 487.367 211.979 498.269 217.566C509.235 223.185 520.378 228.454 529.153 235.613C537.878 242.732 544.189 251.668 545.506 264.6L547.495 264.398ZM460.477 162.717C463.554 148.958 470.027 139.61 477.975 133.294C485.938 126.964 495.438 123.635 504.611 122.022C513.784 120.41 522.584 120.522 529.101 121.042C532.357 121.301 535.036 121.661 536.898 121.956C537.829 122.103 538.555 122.234 539.047 122.328C539.293 122.375 539.48 122.412 539.604 122.438C539.666 122.45 539.713 122.46 539.744 122.467C539.759 122.47 539.77 122.472 539.777 122.474C539.781 122.475 539.784 122.475 539.785 122.476C539.786 122.476 539.786 122.476 539.787 122.476C539.787 122.476 539.787 122.476 540.001 121.499C540.215 120.522 540.214 120.522 540.213 120.522C540.212 120.522 540.211 120.522 540.21 120.521C540.207 120.521 540.204 120.52 540.199 120.519C540.19 120.517 540.176 120.514 540.159 120.51C540.124 120.503 540.073 120.492 540.006 120.479C539.873 120.451 539.676 120.412 539.421 120.363C538.91 120.266 538.164 120.131 537.211 119.98C535.305 119.679 532.574 119.312 529.26 119.048C522.636 118.52 513.655 118.402 504.265 120.052C494.876 121.703 485.032 125.13 476.73 131.728C468.412 138.339 461.698 148.091 458.525 162.281L460.477 162.717Z" fill="#F5F5F5"/>
<path d="M820.547 362.804C820.715 363.33 821.277 363.621 821.804 363.453L830.38 360.725C830.906 360.557 831.197 359.995 831.03 359.469C830.862 358.942 830.3 358.651 829.774 358.819L822.15 361.244L819.725 353.621C819.557 353.095 818.995 352.804 818.468 352.971C817.942 353.139 817.651 353.701 817.819 354.227L820.547 362.804ZM689 259.5L689.237 258.528L689.237 258.528L689 259.5ZM797.501 189.5L797.343 188.513L797.288 188.522L797.234 188.536L797.501 189.5ZM623.038 186.139C622.06 186.347 622.06 186.348 622.06 186.349C622.06 186.349 622.06 186.35 622.06 186.351C622.061 186.354 622.062 186.357 622.063 186.361C622.064 186.37 622.067 186.382 622.07 186.397C622.077 186.428 622.087 186.474 622.101 186.533C622.128 186.652 622.168 186.827 622.223 187.054C622.332 187.509 622.499 188.174 622.73 189.023C623.191 190.72 623.908 193.153 624.934 196.11C626.987 202.023 630.281 210.044 635.25 218.476C645.183 235.333 661.864 253.917 688.763 260.472L689.237 258.528C663.05 252.148 646.749 234.051 636.973 217.461C632.087 209.169 628.844 201.275 626.824 195.454C625.814 192.545 625.11 190.156 624.66 188.498C624.434 187.669 624.273 187.023 624.167 186.587C624.115 186.368 624.076 186.202 624.051 186.092C624.039 186.036 624.03 185.995 624.024 185.968C624.021 185.954 624.019 185.945 624.017 185.938C624.017 185.935 624.016 185.933 624.016 185.932C624.016 185.931 624.016 185.931 624.016 185.93C624.016 185.93 624.016 185.93 623.038 186.139ZM688.763 260.472C703.547 264.074 714.057 262.548 722.434 257.828C730.754 253.139 736.838 245.363 742.905 236.789C755.082 219.578 767.417 198.854 797.767 190.464L797.234 188.536C766.085 197.147 753.369 218.537 741.272 235.634C735.201 244.214 729.341 251.64 721.452 256.085C713.619 260.5 703.654 262.041 689.237 258.528L688.763 260.472ZM797.659 190.488C810.698 188.401 822.821 189.919 832.629 195.32C842.42 200.71 850 210.02 853.892 223.711C861.699 251.172 854.649 296.24 820.612 362.041L822.389 362.96C856.484 297.045 863.839 251.388 855.816 223.164C851.793 209.014 843.9 199.242 833.594 193.568C823.306 187.903 810.709 186.374 797.343 188.513L797.659 190.488Z" fill="#F5F5F5"/>
<mask id="mask1_290_4692" style="mask-type:alpha" maskUnits="userSpaceOnUse" x="826" y="184" width="82" height="174">
<rect x="826" y="184" width="82" height="174" fill="#D9D9D9"/>
</mask>
<g mask="url(#mask1_290_4692)">
<path d="M623.038 186.139C623.038 186.139 635.914 246.565 689 259.5C747.401 273.73 736.001 206.5 797.501 189.5C850.312 181.049 889.632 230.785 821.5 362.501" stroke="white" stroke-width="2"/>
</g>
<path d="M770.426 370.904C770.926 370.669 771.14 370.073 770.904 369.573L767.066 361.433C766.83 360.934 766.234 360.72 765.735 360.955C765.235 361.191 765.021 361.787 765.257 362.286L768.669 369.522L761.433 372.934C760.934 373.17 760.72 373.765 760.955 374.265C761.191 374.765 761.787 374.979 762.286 374.743L770.426 370.904ZM491.5 459L491.732 459.973L491.732 459.973L491.5 459ZM615.5 365L615.105 364.081L615.09 364.088L615.076 364.095L615.5 365ZM407.5 446.5L406.826 447.239L406.826 447.239L407.5 446.5ZM387 393C386.001 392.954 386.001 392.954 386.001 392.954C386.001 392.954 386.001 392.954 386.001 392.954C386.001 392.954 386.001 392.955 386.001 392.955C386.001 392.955 386.001 392.956 386.001 392.956C386.001 392.957 386.001 392.958 386.001 392.96C386.001 392.963 386 392.968 386 392.974C386 392.986 385.999 393.003 385.998 393.025C385.996 393.07 385.994 393.134 385.992 393.219C385.987 393.388 385.982 393.635 385.979 393.955C385.973 394.595 385.977 395.526 386.017 396.701L388.016 396.632C387.977 395.489 387.973 394.587 387.979 393.973C387.981 393.666 387.987 393.432 387.991 393.275C387.993 393.197 387.995 393.139 387.997 393.1C387.997 393.081 387.998 393.067 387.998 393.058C387.999 393.053 387.999 393.05 387.999 393.048C387.999 393.047 387.999 393.047 387.999 393.046C387.999 393.046 387.999 393.046 387.999 393.046C387.999 393.046 387.999 393.046 387.999 393.046C387.999 393.046 387.999 393.046 387.999 393.046C387.999 393.046 387.999 393.046 387 393ZM386.605 404.137C386.877 406.37 387.262 408.85 387.809 411.491L389.767 411.086C389.233 408.504 388.856 406.079 388.59 403.895L386.605 404.137ZM389.638 418.727C390.332 421.028 391.156 423.388 392.135 425.761L393.984 424.998C393.032 422.691 392.23 420.394 391.553 418.149L389.638 418.727ZM395.358 432.507C396.536 434.653 397.862 436.775 399.355 438.84L400.975 437.668C399.535 435.675 398.253 433.623 397.111 431.545L395.358 432.507ZM404.14 444.609C404.995 445.506 405.889 446.384 406.826 447.239L408.174 445.761C407.273 444.939 406.412 444.094 405.589 443.23L404.14 444.609ZM406.826 447.239C407.92 448.237 409.082 449.182 410.304 450.075L411.484 448.46C410.317 447.607 409.211 446.708 408.174 445.761L406.826 447.239ZM417.967 454.659C420.565 455.934 423.323 457.05 426.199 458.02L426.838 456.125C424.035 455.18 421.359 454.095 418.848 452.863L417.967 454.659ZM434.739 460.406C437.579 461.052 440.49 461.58 443.442 461.999L443.723 460.019C440.821 459.607 437.964 459.088 435.182 458.456L434.739 460.406ZM452.231 462.923C455.171 463.13 458.122 463.238 461.055 463.255L461.067 461.255C458.175 461.238 455.266 461.132 452.371 460.928L452.231 462.923ZM469.88 463.034C472.872 462.866 475.815 462.607 478.675 462.263L478.436 460.277C475.619 460.616 472.719 460.872 469.769 461.037L469.88 463.034ZM487.411 460.902C488.889 460.616 490.331 460.306 491.732 459.973L491.269 458.027C489.897 458.353 488.483 458.658 487.031 458.939L487.411 460.902ZM491.732 459.973C493.052 459.659 494.344 459.324 495.61 458.969L495.069 457.043C493.83 457.391 492.564 457.72 491.269 458.027L491.732 459.973ZM503.186 456.487C505.735 455.526 508.169 454.474 510.501 453.34L509.627 451.541C507.349 452.649 504.972 453.676 502.481 454.616L503.186 456.487ZM517.514 449.515C519.815 448.119 522.017 446.637 524.138 445.081L522.956 443.468C520.878 444.992 518.724 446.441 516.476 447.806L517.514 449.515ZM530.369 440.127C532.382 438.403 534.332 436.613 536.239 434.769L534.849 433.331C532.966 435.151 531.046 436.913 529.068 438.608L530.369 440.127ZM541.814 429.126C543.617 427.226 545.4 425.284 547.179 423.312L545.694 421.972C543.922 423.937 542.152 425.865 540.363 427.749L541.814 429.126ZM552.434 417.418C554.16 415.469 555.9 413.502 557.673 411.523L556.183 410.188C554.406 412.173 552.662 414.145 550.937 416.092L552.434 417.418ZM562.972 405.703C564.732 403.809 566.535 401.913 568.397 400.022L566.972 398.619C565.094 400.526 563.277 402.436 561.507 404.341L562.972 405.703ZM574.013 394.522C575.883 392.76 577.818 391.009 579.829 389.275L578.523 387.76C576.488 389.515 574.532 391.286 572.642 393.066L574.013 394.522ZM585.896 384.29C587.911 382.716 590.002 381.161 592.178 379.631L591.028 377.995C588.823 379.545 586.705 381.12 584.664 382.714L585.896 384.29ZM598.711 375.284C600.874 373.924 603.117 372.588 605.449 371.282L604.471 369.537C602.11 370.86 599.837 372.213 597.646 373.591L598.711 375.284ZM612.367 367.625C613.532 367.045 614.717 366.471 615.924 365.906L615.076 364.095C613.854 364.667 612.654 365.247 611.475 365.835L612.367 367.625ZM615.895 365.919C617.091 365.405 618.296 364.912 619.51 364.44L618.785 362.576C617.55 363.057 616.323 363.558 615.105 364.081L615.895 365.919ZM626.886 361.849C629.369 361.066 631.881 360.359 634.415 359.724L633.929 357.784C631.358 358.428 628.807 359.146 626.284 359.942L626.886 361.849ZM642.058 358.033C644.619 357.539 647.197 357.11 649.785 356.744L649.504 354.763C646.885 355.135 644.274 355.568 641.679 356.07L642.058 358.033ZM657.569 355.824C660.174 355.575 662.783 355.383 665.39 355.244L665.283 353.247C662.65 353.388 660.013 353.581 657.379 353.833L657.569 355.824ZM673.229 354.977C675.857 354.937 678.477 354.946 681.082 354.998L681.122 352.998C678.495 352.946 675.851 352.937 673.198 352.977L673.229 354.977ZM688.932 355.285C691.569 355.424 694.183 355.604 696.767 355.819L696.933 353.826C694.329 353.609 691.695 353.428 689.037 353.288L688.932 355.285ZM704.576 356.581C707.223 356.877 709.828 357.206 712.385 357.561L712.66 355.58C710.087 355.222 707.463 354.891 704.798 354.594L704.576 356.581ZM720.159 358.742C722.803 359.178 725.381 359.637 727.881 360.111L728.254 358.146C725.738 357.669 723.145 357.207 720.485 356.769L720.159 358.742ZM735.611 361.673C738.285 362.245 740.842 362.827 743.269 363.406L743.733 361.46C741.292 360.878 738.72 360.293 736.03 359.717L735.611 361.673ZM750.871 365.312C753.679 366.051 756.225 366.761 758.471 367.412L759.028 365.492C756.767 364.836 754.205 364.122 751.38 363.378L750.871 365.312ZM765.986 369.708C767.182 370.094 768.104 370.403 768.725 370.615C769.035 370.721 769.271 370.803 769.428 370.858C769.507 370.886 769.566 370.907 769.605 370.921C769.624 370.928 769.639 370.933 769.648 370.936C769.653 370.938 769.657 370.939 769.659 370.94C769.66 370.94 769.661 370.941 769.661 370.941C769.662 370.941 769.662 370.941 769.662 370.941C769.662 370.941 769.662 370.941 769.662 370.941C769.662 370.941 769.662 370.941 769.662 370.941C769.662 370.941 769.662 370.941 770 370C770.338 369.059 770.338 369.059 770.338 369.059C770.338 369.059 770.338 369.059 770.338 369.059C770.338 369.059 770.338 369.059 770.337 369.059C770.337 369.059 770.337 369.058 770.337 369.058C770.336 369.058 770.335 369.058 770.333 369.057C770.33 369.056 770.326 369.055 770.321 369.053C770.31 369.049 770.294 369.043 770.274 369.036C770.232 369.021 770.171 368.999 770.09 368.971C769.927 368.914 769.687 368.831 769.371 368.723C768.74 368.507 767.808 368.194 766.6 367.804L765.986 369.708Z" fill="#F5F5F5"/>
<defs>
<clipPath id="clip0_290_4692">
<rect width="7.67069" height="7.67069" fill="white" transform="translate(822.228 430.132)"/>
</clipPath>
<clipPath id="clip1_290_4692">
<rect width="7.67069" height="7.67069" fill="white" transform="translate(822.228 437.802)"/>
</clipPath>
<clipPath id="clip2_290_4692">
<rect width="7.67069" height="7.67069" fill="white" transform="translate(822.228 445.473)"/>
</clipPath>
</defs>
</svg>
